<?xml version="1.0" encoding="UTF-8" standalone="no"?>
<svg
   width="44mm"
   height="44mm"
   viewBox="0 0 44 44"
   version="1.1"
   id="svg5"
   xml:space="preserve"
   xmlns="http://www.w3.org/2000/svg"
   xmlns:svg="http://www.w3.org/2000/svg"><defs
     id="defs9"><clipPath
       clipPathUnits="userSpaceOnUse"
       id="clipPath2735"><circle
         style="display:none;fill:#ff00ff;fill-opacity:1;stroke:none;stroke-width:4.763;stroke-dasharray:none;stroke-opacity:1"
         id="circle2737"
         cx="27.499996"
         cy="27.499996"
         r="10"
         d="m 37.499996,27.499996 a 10,10 0 0 1 -10,10 10,10 0 0 1 -10,-10 10,10 0 0 1 10,-10 10,10 0 0 1 10,10 z" /><path
         id="lpe_path-effect2739"
         style="fill:#ff00ff;fill-opacity:1;stroke:none;stroke-width:4.763;stroke-dasharray:none;stroke-opacity:1"
         class="powerclip"
         d="m 0.5,8.7499777 h 54 V 46.250021 H 0.5 Z M 37.499996,27.499996 a 10,10 0 0 0 -10,-10 10,10 0 0 0 -10,10 10,10 0 0 0 10,10 10,10 0 0 0 10,-10 z" /></clipPath><mask
       maskUnits="userSpaceOnUse"
       id="mask-powermask-path-effect20"><path
         id="mask-powermask-path-effect20_box"
         style="fill:#ffffff;fill-opacity:1"
         d="m 14.5,14.500023 h 15 v 15 h -15 z" /><rect
         style="display:inline;fill:#000000;stroke-width:0.264583"
         id="rect19"
         width="40.000195"
         height="4.0000196"
         x="-20.000141"
         y="29.112583"
         transform="matrix(0.70711021,-0.70710335,0.70711021,0.70710335,0,0)"
         d="m -20.000141,29.112583 h 40.000194 v 4.00002 h -40.000194 z" /></mask><mask
       maskUnits="userSpaceOnUse"
       id="mask-powermask-path-effect21"><path
         id="mask-powermask-path-effect21_box"
         style="fill:#ffffff;fill-opacity:1"
         d="m 4.5,12.749978 h 46 v 29.500043 h -46 z" /><rect
         style="display:inline;fill:#000000;stroke-width:0.264583"
         id="rect20"
         width="40.000195"
         height="4.0000196"
         x="-20.000164"
         y="36.890739"
         transform="matrix(0.70711021,-0.70710335,0.70711021,0.70710335,0,0)"
         d="m -20.000164,36.890739 h 40.000195 v 4.00002 h -40.000195 z" /></mask></defs><path
     style="fill:#ffffff;fill-opacity:1;stroke-width:0.264583"
     d="m 5.5,27.359603 c 0,0 13.37692,-13.58949 22,-13.609603 8.598361,-0.02005 22,13.468107 22,13.468107 0,0 -13.302041,14.011952 -22,14.031893 -8.672687,0.01988 -22,-13.890397 -22,-13.890397 z"
     id="path292"
     clip-path="url(#clipPath2735)"
     transform="translate(-5.4999997,-5.4999777)"
     mask="url(#mask-powermask-path-effect21)" /><path
     style="fill:#ffffff;fill-opacity:1;stroke:none;stroke-width:4.89316;stroke-dasharray:none;stroke-opacity:1"
     id="path2725"
     mask="url(#mask-powermask-path-effect20)"
     d="m 28.5,22.000023 a 6.5,6.5 0 0 1 -6.5,6.5 6.5,6.5 0 0 1 -6.5,-6.5 6.5,6.5 0 0 1 6.5,-6.5 6.5,6.5 0 0 1 6.5,6.5 z" /><rect
     style="fill:#ffffff;stroke-width:0.19169"
     id="rect2"
     width="40"
     height="2"
     x="-20"
     y="30.113041"
     transform="rotate(-45)" /></svg>
