<?xml version="1.0" encoding="UTF-8" standalone="no"?>
<svg
   width="44mm"
   height="27.500044mm"
   viewBox="0 0 44 27.500044"
   version="1.1"
   id="svg5"
   xml:space="preserve"
   xmlns="http://www.w3.org/2000/svg"
   xmlns:svg="http://www.w3.org/2000/svg"><defs
     id="defs9"><clipPath
       clipPathUnits="userSpaceOnUse"
       id="clipPath2735"><circle
         style="display:none;fill:#ff00ff;fill-opacity:1;stroke:none;stroke-width:4.763;stroke-dasharray:none;stroke-opacity:1"
         id="circle2737"
         cx="27.499996"
         cy="27.499996"
         r="10"
         d="m 37.499996,27.499996 a 10,10 0 0 1 -10,10 10,10 0 0 1 -10,-10 10,10 0 0 1 10,-10 10,10 0 0 1 10,10 z" /><path
         id="lpe_path-effect2739"
         style="fill:#ff00ff;fill-opacity:1;stroke:none;stroke-width:4.763;stroke-dasharray:none;stroke-opacity:1"
         class="powerclip"
         d="m 0.5,8.7499777 h 54 V 46.250021 H 0.5 Z M 37.499996,27.499996 a 10,10 0 0 0 -10,-10 10,10 0 0 0 -10,10 10,10 0 0 0 10,10 10,10 0 0 0 10,-10 z" /></clipPath></defs><path
     style="fill:#ffffff;fill-opacity:1;stroke-width:0.264583"
     d="m 5.5,27.359603 c 0,0 13.37692,-13.58949 22,-13.609603 8.598361,-0.02005 22,13.468107 22,13.468107 0,0 -13.302041,14.011952 -22,14.031893 -8.672687,0.01988 -22,-13.890397 -22,-13.890397 z"
     id="path292"
     clip-path="url(#clipPath2735)"
     transform="translate(-5.4999997,-13.749978)" /><circle
     style="fill:#ffffff;fill-opacity:1;stroke:none;stroke-width:4.89316;stroke-dasharray:none;stroke-opacity:1"
     id="path2725"
     cx="22"
     cy="13.750023"
     r="6.5" /></svg>
