<svg xmlns="http://www.w3.org/2000/svg" width="32" height="32" viewBox="0 0 32 32">
    <path
        d="m 27.879354,16 c 0.0067,0.405416 -0.01327,0.810019 -0.05817,1.212088 1.052207,0.533219 2.057958,1.190993 3.006795,1.959417 -0.245392,1.028486 -0.599889,2.023694 -1.049703,2.971838 -1.22092,-0.0018 -2.419792,-0.118106 -3.582705,-0.338442 -0.216841,0.35421 -0.451729,0.698992 -0.702937,1.032621 -0.25121,0.333629 -0.518742,0.656106 -0.800871,0.965707 0.539697,1.057118 0.994552,2.179723 1.354104,3.353914 -0.77594,0.70474 -1.619624,1.334843 -2.517266,1.876523 -1.023373,-0.675224 -1.965626,-1.426556 -2.812858,-2.243536 -0.371347,0.179025 -0.750402,0.338281 -1.135438,0.476045 -0.385037,0.137764 -0.776055,0.254035 -1.171333,0.347092 -0.141094,1.164578 -0.405419,2.335579 -0.803431,3.499097 -0.529159,0.06642 -1.064916,0.103838 -1.605544,0.110536 -0.540638,-0.0067 -1.076403,-0.04412 -1.605571,-0.11054 -0.39801,-1.163518 -0.662332,-2.334519 -0.803425,-3.499098 -0.395277,-0.09306 -0.786295,-0.20933 -1.171331,-0.347095 -0.385037,-0.137764 -0.764091,-0.297021 -1.13544,-0.476046 -0.847232,0.816978 -1.7894875,1.568308 -2.8128605,2.243531 C 7.5737278,28.491971 6.7300443,27.861866 5.9541057,27.157124 6.313661,25.982934 6.7685173,24.86033 7.3082164,23.803213 7.0260867,23.493611 6.7585558,23.171133 6.5073472,22.837504 6.2561387,22.503874 6.0212524,22.159093 5.8044117,21.804882 4.6414971,22.025216 3.4426267,22.141514 2.2217055,22.143318 1.7718929,21.195174 1.4173984,20.199964 1.1720086,19.171477 2.1208469,18.403056 3.1265992,17.745283 4.1788072,17.212066 4.1339052,16.810005 4.1139422,16.405408 4.1206402,16 l -4e-7,-2.2e-5 c -0.0067,-0.405416 0.013268,-0.810019 0.058173,-1.212087 C 3.1266066,14.254669 2.1208569,13.596893 1.1720216,12.828467 1.4174152,11.799982 1.7719134,10.804774 2.2217293,9.856631 3.4426507,9.858431 4.6415209,9.974742 5.8044349,10.19508 6.0212768,9.84087 6.2561643,9.496089 6.5073739,9.16246 6.7585837,8.8288314 7.0261157,8.5063549 7.3082465,8.1967538 6.7685509,7.1396354 6.3136982,6.0170285 5.9541468,4.842838 6.7300878,4.1380987 7.5737734,3.507997 8.4714171,2.9663193 9.4947877,3.6415452 10.43704,4.3928779 11.28427,5.2098592 c 0.371349,-0.1790239 0.750404,-0.338279 1.13544,-0.476042 0.385036,-0.1377631 0.776055,-0.2540341 1.171333,-0.3470897 0.141097,-1.1645779 0.405423,-2.335578 0.803439,-3.4990952 0.52915,-0.066416 1.064896,-0.1038347 1.605515,-0.1105323 0.540647,0.0067 1.076422,0.04412 1.6056,0.1105429 0.398008,1.1635192 0.662328,2.3345206 0.803417,3.4990994 0.395277,0.093058 0.786296,0.2093315 1.171332,0.3470968 0.385036,0.1377654 0.76409,0.2970226 1.135437,0.4760487 0.847234,-0.8169768 1.78949,-1.5683046 2.812865,-2.2435255 0.897641,0.5416825 1.741323,1.1717885 2.51726,1.8765317 -0.359556,1.1741889 -0.814415,2.2967936 -1.354115,3.3539093 0.282128,0.3096024 0.549659,0.6320801 0.800867,0.9657097 0.251208,0.33363 0.486094,0.678412 0.702934,1.032623 1.162914,-0.220331 2.361785,-0.336628 3.582706,-0.33843 0.449811,0.948146 0.804304,1.943356 1.049692,2.971843 -0.94884,0.76842 -1.954594,1.426191 -3.006803,1.959406 z"
        stroke="#ffffff"
        stroke-width="1"
        fill-opacity="0"
    />
    <circle
        cx="16"
        cy="16"
        r="6.5"
        stroke="#ffffff"
        stroke-width="1"
        fill-opacity="0"
    />
</svg>
